<?xml version="1.0" encoding="utf-8"?>
<!-- Generator: Adobe Illustrator 24.1.1, SVG Export Plug-In . SVG Version: 6.00 Build 0)  -->
<svg version="1.1" id="Layer_1" xmlns="http://www.w3.org/2000/svg" xmlns:xlink="http://www.w3.org/1999/xlink" x="0px" y="0px"
	 viewBox="0 0 276.5 311" style="enable-background:new 0 0 276.5 311;" xml:space="preserve">
<style type="text/css">
	.st0{fill:#F8AB2F;}
</style>
<g>
	<g>
		<path class="st0" d="M251.1,273.7c0.5-0.1,0.8-0.6,0.6-1L155.1,33.9c-6.8-16.2-31.2-16.7-38.8-0.8c0,0,0,0,0,0.1l-96.9,244
			c-0.2,0.5,0.1,1,0.7,1l31.5,3.7l0,0l41.3,5c0.4,0,0.8-0.2,0.9-0.6c1.5-5.9,11.8-50.7-5.3-88.8c-0.1-0.3-0.1-0.5,0.1-0.8
			c2.9-3.8,29.2-37.8,46.9-81.4c0.3-0.7,1.2-0.7,1.5,0c17.7,43.6,43.9,77.7,46.9,81.4c0.2,0.2,0.2,0.5,0.1,0.8
			c-17.1,37.9-7.1,82.6-5.6,88.7c0.1,0.4,0.5,0.6,0.9,0.6l41.3-8l0,0L251.1,273.7z"/>
		<path class="st0" d="M136.9,196.4l0-72.8c0-0.4-0.4-0.8-0.8-0.8l0,0c-0.4,0-0.8,0.3-0.8,0.8l-0.2,72.9c0,0.3-0.2,0.6-0.6,0.7
			c-2.8,0.7-4.9,3-4.9,5.9c0,3.3,2.9,6.1,6.5,6.1s6.5-2.7,6.5-6.1c0-2.9-2.2-5.3-5.1-5.9C137.1,197.1,136.9,196.8,136.9,196.4z"/>
	</g>
</g>
</svg>
